<svg width="512" height="512" viewBox="0 0 512 512" fill="none" xmlns="http://www.w3.org/2000/svg">
<circle cx="256" cy="256" r="256" fill="white"/>
<path d="M371.375 151C386.074 151 398 162.752 398 177.25C398 185.508 394.062 193.273 387.35 198.25L266.65 287.5C260.327 292.148 251.673 292.148 245.35 287.5L124.65 198.25C117.945 193.273 114 185.508 114 177.25C114 162.752 125.92 151 140.625 151H371.375ZM234.7 301.5C247.347 310.852 264.653 310.852 277.3 301.5L398 212.25V326C398 345.305 382.08 361 362.5 361H149.5C129.892 361 114 345.305 114 326V212.25L234.7 301.5Z" fill="#448FD5"/>
</svg>
